<svg xmlns="http://www.w3.org/2000/svg" width="295.076" height="261.46" viewBox="0 0 295.076 261.46">
  <g id="bigHurt" transform="translate(-244.422 -411)">
    <path id="Heart" d="M24.769,25.769a81.153,81.153,0,0,0,0,114.767L147.692,263.459l.845-.845.846.846L272.307,140.538A81.153,81.153,0,1,0,157.54,25.77l-4.26,4.259a6.706,6.706,0,0,1-9.484,0l-4.26-4.26A81.153,81.153,0,0,0,24.769,25.769Z" transform="translate(243.422 409)" fill="#fff"/>
    <g id="Group_154" data-name="Group 154" transform="translate(260.038 456.517)">
      <path id="fi_activity" d="M259.532,55.507h-105.7l-19.688,52.507L94.765,3,75.077,55.507h-81.5" transform="translate(6.418 26.171)" fill="none" stroke="#f48678" stroke-linecap="round" stroke-linejoin="round" stroke-width="10"/>
      <rect id="Rectangle_29" data-name="Rectangle 29" width="163.355" height="163.355" transform="translate(42.103 0)" fill="none"/>
    </g>
  </g>
</svg>
