<svg xmlns="http://www.w3.org/2000/svg" width="26" height="19" viewBox="0 0 26 19">
  <g id="Mail" transform="translate(0 -3)">
    <path id="Path_77" data-name="Path 77" d="M1,6A2,2,0,0,1,3,4H23a2,2,0,0,1,2,2V19a2,2,0,0,1-2,2H3a2,2,0,0,1-2-2Z" fill="none" stroke="#14142b" stroke-linejoin="round" stroke-width="2"/>
    <path id="Path_78" data-name="Path 78" d="M2.421,5.3A.75.75,0,0,1,2.928,4H23.072a.75.75,0,0,1,.507,1.3l-8.551,7.839a3,3,0,0,1-4.054,0Z" fill="none" stroke="#14142b" stroke-linejoin="round" stroke-width="2"/>
  </g>
</svg>
